<svg version="1.0" xmlns="http://www.w3.org/2000/svg"
 width="570.000000pt" height="429.000000pt" viewBox="0 0 570.000000 429.000000"
 preserveAspectRatio="xMidYMid meet">

<g transform="translate(0.000000,429.000000) scale(0.100000,-0.100000)"
fill="#000000" stroke="none">
<path fill="#343a40" d="M892 3991 c-436 -6 -484 -8 -499 -24 -15 -14 -17 -35 -15 -129 11
-676 25 -1312 31 -1483 6 -186 10 -215 29 -251 27 -52 76 -94 110 -95 15 0
164 -8 331 -18 272 -16 305 -20 317 -36 11 -15 14 -71 14 -251 0 -227 1 -233
23 -258 27 -30 158 -124 249 -178 l68 -40 187 -9 c128 -6 191 -13 199 -21 16
-17 34 -329 34 -608 0 -113 5 -212 10 -220 8 -13 93 -15 643 -18 727 -4 687
-8 731 79 l26 53 0 438 0 439 46 49 c30 32 60 53 83 59 20 5 259 21 531 36
272 14 504 30 516 35 12 5 48 60 92 142 l72 134 0 122 0 122 41 27 c59 39 122
41 260 8 160 -38 201 -36 329 14 64 24 114 51 128 66 l22 26 0 679 0 680 -22
14 c-28 18 -83 28 -338 61 -107 14 -208 30 -225 35 -18 6 -71 54 -133 120
l-104 110 -436 -2 -437 -3 -3 -170 c-1 -107 2 -179 8 -196 12 -29 15 -29 200
-50 77 -8 255 -45 355 -73 38 -10 41 -15 62 -77 27 -79 67 -405 58 -465 -10
-71 -23 -76 -199 -82 -127 -4 -156 -2 -160 9 -3 8 -12 83 -20 167 -8 87 -20
159 -27 168 -11 13 -39 14 -203 8 -131 -4 -195 -10 -204 -19 -11 -10 -10 -63
7 -317 26 -378 31 -426 45 -431 6 -2 83 1 170 6 127 7 162 6 172 -5 17 -18 23
-343 7 -359 -25 -25 -653 -83 -674 -62 -17 17 -27 76 -40 237 -12 161 -17 177
-53 201 -26 17 -412 61 -634 71 l-139 7 -12 -34 c-18 -50 -25 -154 -16 -253 9
-113 20 -126 109 -126 80 0 160 -15 206 -39 55 -28 58 -50 53 -441 -2 -190 -6
-355 -8 -366 -8 -40 -47 -45 -199 -30 -170 17 -188 27 -198 107 -3 30 -6 115
-7 190 -1 97 -5 140 -15 154 -15 21 -116 30 -459 41 -233 7 -240 10 -257 103
-15 79 -13 226 3 239 7 6 53 20 102 31 106 23 198 56 215 77 19 22 7 279 -17
369 -22 86 -24 87 -195 50 -143 -32 -180 -29 -280 17 -78 36 -118 76 -118 119
0 16 32 94 73 177 41 81 94 196 118 256 31 76 51 112 66 119 28 12 224 -46
250 -75 11 -12 19 -44 22 -91 l6 -72 165 -38 c91 -20 179 -36 195 -35 28 3 32
8 53 73 42 130 62 255 62 388 0 88 -4 127 -12 134 -7 5 -57 26 -112 47 -85 32
-115 38 -230 46 -274 20 -412 32 -448 41 -44 11 -44 12 -53 199 -4 93 -9 128
-20 140 -19 19 -51 19 -683 11z"/>
</g>
</svg>
